<mxfile host="app.diagrams.net" modified="2023-10-30T02:36:52.747Z" agent="Mozilla/5.0 (Macintosh; Intel Mac OS X 10_15_7) AppleWebKit/537.36 (KHTML, like Gecko) Chrome/118.0.0.0 Safari/537.36" etag="sDRQDRXf8BiCpUBevW9c" version="21.8.2" type="device">
  <diagram name="Page-1" id="p8LFrJsHWkMbr6b-y_z0">
    <mxGraphModel dx="2284" dy="803" grid="1" gridSize="10" guides="1" tooltips="1" connect="1" arrows="1" fold="1" page="1" pageScale="1" pageWidth="850" pageHeight="1100" math="0" shadow="0">
      <root>
        <mxCell id="0" />
        <mxCell id="1" parent="0" />
        <mxCell id="eKqpB_xP7KtsMuz9ae_z-18" value="" style="rounded=0;whiteSpace=wrap;html=1;" vertex="1" parent="1">
          <mxGeometry x="-360" y="12.5" width="300" height="80" as="geometry" />
        </mxCell>
        <mxCell id="eKqpB_xP7KtsMuz9ae_z-4" value="Public Subnet" style="shape=mxgraph.ibm.box;prType=subnet;fontStyle=0;verticalAlign=top;align=left;spacingLeft=32;spacingTop=4;fillColor=#E6F0E2;rounded=0;whiteSpace=wrap;html=1;strokeColor=#00882B;strokeWidth=1;dashed=0;container=1;spacing=-4;collapsible=0;expand=0;recursiveResize=0;" vertex="1" parent="1">
          <mxGeometry x="190" y="78" width="290" height="262" as="geometry" />
        </mxCell>
        <mxCell id="eKqpB_xP7KtsMuz9ae_z-1" value="Internet Gateway&lt;br&gt;(Inbound and Outbound Connection)" style="sketch=0;outlineConnect=0;fontColor=#232F3E;gradientColor=none;fillColor=#8C4FFF;strokeColor=none;dashed=0;verticalLabelPosition=bottom;verticalAlign=top;align=center;html=1;fontSize=12;fontStyle=0;aspect=fixed;pointerEvents=1;shape=mxgraph.aws4.internet_gateway;" vertex="1" parent="1">
          <mxGeometry x="170" y="130" width="48" height="48" as="geometry" />
        </mxCell>
        <mxCell id="eKqpB_xP7KtsMuz9ae_z-2" value="NAT Gateway&lt;br&gt;(Outbound Connection)" style="sketch=0;outlineConnect=0;fontColor=#232F3E;gradientColor=none;fillColor=#8C4FFF;strokeColor=none;dashed=0;verticalLabelPosition=bottom;verticalAlign=top;align=center;html=1;fontSize=12;fontStyle=0;aspect=fixed;pointerEvents=1;shape=mxgraph.aws4.nat_gateway;" vertex="1" parent="1">
          <mxGeometry x="170" y="240" width="48" height="48" as="geometry" />
        </mxCell>
        <mxCell id="eKqpB_xP7KtsMuz9ae_z-5" value="Private Subnet" style="points=[[0,0],[0.25,0],[0.5,0],[0.75,0],[1,0],[1,0.25],[1,0.5],[1,0.75],[1,1],[0.75,1],[0.5,1],[0.25,1],[0,1],[0,0.75],[0,0.5],[0,0.25]];outlineConnect=0;gradientColor=none;html=1;whiteSpace=wrap;fontSize=12;fontStyle=0;container=1;pointerEvents=0;collapsible=0;recursiveResize=0;shape=mxgraph.aws4.group;grIcon=mxgraph.aws4.group_security_group;grStroke=0;strokeColor=#147EBA;fillColor=#E6F2F8;verticalAlign=top;align=left;spacingLeft=30;fontColor=#147EBA;dashed=0;" vertex="1" parent="1">
          <mxGeometry x="500" y="78" width="150" height="262" as="geometry" />
        </mxCell>
        <mxCell id="eKqpB_xP7KtsMuz9ae_z-3" value="Route Table" style="outlineConnect=0;dashed=0;verticalLabelPosition=bottom;verticalAlign=top;align=center;html=1;shape=mxgraph.aws3.route_table;fillColor=#F58536;gradientColor=none;" vertex="1" parent="1">
          <mxGeometry x="470" y="178" width="42.39" height="39" as="geometry" />
        </mxCell>
        <mxCell id="eKqpB_xP7KtsMuz9ae_z-6" value="VPC" style="points=[[0,0],[0.25,0],[0.5,0],[0.75,0],[1,0],[1,0.25],[1,0.5],[1,0.75],[1,1],[0.75,1],[0.5,1],[0.25,1],[0,1],[0,0.75],[0,0.5],[0,0.25]];outlineConnect=0;gradientColor=none;html=1;whiteSpace=wrap;fontSize=12;fontStyle=0;container=1;pointerEvents=0;collapsible=0;recursiveResize=0;shape=mxgraph.aws4.group;grIcon=mxgraph.aws4.group_vpc;strokeColor=#248814;fillColor=none;verticalAlign=top;align=left;spacingLeft=30;fontColor=#AAB7B8;dashed=0;" vertex="1" parent="1">
          <mxGeometry x="90" y="59" width="582" height="300" as="geometry" />
        </mxCell>
        <mxCell id="eKqpB_xP7KtsMuz9ae_z-9" value="AWS Cloud" style="sketch=0;outlineConnect=0;gradientColor=none;html=1;whiteSpace=wrap;fontSize=12;fontStyle=0;shape=mxgraph.aws4.group;grIcon=mxgraph.aws4.group_aws_cloud;strokeColor=#AAB7B8;fillColor=none;verticalAlign=top;align=left;spacingLeft=30;fontColor=#AAB7B8;dashed=0;" vertex="1" parent="1">
          <mxGeometry x="40" y="12.5" width="660" height="370" as="geometry" />
        </mxCell>
        <mxCell id="eKqpB_xP7KtsMuz9ae_z-12" style="edgeStyle=orthogonalEdgeStyle;rounded=0;orthogonalLoop=1;jettySize=auto;html=1;startArrow=classicThin;startFill=1;" edge="1" parent="1" source="eKqpB_xP7KtsMuz9ae_z-11" target="eKqpB_xP7KtsMuz9ae_z-1">
          <mxGeometry relative="1" as="geometry">
            <mxPoint x="-40" y="154" as="targetPoint" />
          </mxGeometry>
        </mxCell>
        <mxCell id="eKqpB_xP7KtsMuz9ae_z-11" value="" style="image;aspect=fixed;perimeter=ellipsePerimeter;html=1;align=center;shadow=0;dashed=0;spacingTop=3;image=img/lib/active_directory/internet_cloud.svg;" vertex="1" parent="1">
          <mxGeometry x="-140" y="138.25" width="50" height="31.5" as="geometry" />
        </mxCell>
        <mxCell id="eKqpB_xP7KtsMuz9ae_z-14" value="" style="endArrow=none;html=1;rounded=0;" edge="1" parent="1">
          <mxGeometry width="50" height="50" relative="1" as="geometry">
            <mxPoint x="-340" y="62.5" as="sourcePoint" />
            <mxPoint x="-300" y="62.5" as="targetPoint" />
          </mxGeometry>
        </mxCell>
        <mxCell id="eKqpB_xP7KtsMuz9ae_z-15" value="" style="endArrow=none;dashed=1;html=1;rounded=0;" edge="1" parent="1">
          <mxGeometry width="50" height="50" relative="1" as="geometry">
            <mxPoint x="-340" y="82.5" as="sourcePoint" />
            <mxPoint x="-300" y="82.5" as="targetPoint" />
          </mxGeometry>
        </mxCell>
        <mxCell id="eKqpB_xP7KtsMuz9ae_z-16" value="Directly Service Related" style="text;html=1;strokeColor=none;fillColor=none;align=center;verticalAlign=middle;whiteSpace=wrap;rounded=0;" vertex="1" parent="1">
          <mxGeometry x="-300" y="52.5" width="150" height="20" as="geometry" />
        </mxCell>
        <mxCell id="eKqpB_xP7KtsMuz9ae_z-17" value="Indirectly Service Related (admin, etc.)" style="text;html=1;strokeColor=none;fillColor=none;align=center;verticalAlign=middle;whiteSpace=wrap;rounded=0;" vertex="1" parent="1">
          <mxGeometry x="-300" y="72.5" width="230" height="20" as="geometry" />
        </mxCell>
        <mxCell id="eKqpB_xP7KtsMuz9ae_z-20" value="Key:" style="text;html=1;strokeColor=none;fillColor=none;align=center;verticalAlign=middle;whiteSpace=wrap;rounded=0;fontStyle=1" vertex="1" parent="1">
          <mxGeometry x="-360" y="12.5" width="60" height="30" as="geometry" />
        </mxCell>
      </root>
    </mxGraphModel>
  </diagram>
</mxfile>
